<?xml version="1.0" standalone="no"?>
<!DOCTYPE svg PUBLIC "-//W3C//DTD SVG 20010904//EN"
 "http://www.w3.org/TR/2001/REC-SVG-20010904/DTD/svg10.dtd">
<svg version="1.0" xmlns="http://www.w3.org/2000/svg"
 width="300.000000pt" height="212.000000pt" viewBox="0 0 300.000000 212.000000"
 preserveAspectRatio="xMidYMid meet">
<metadata>
Created by potrace 1.16, written by Peter Selinger 2001-2019
</metadata>
<g transform="translate(0.000000,212.000000) scale(0.100000,-0.100000)"
fill="#000000" stroke="none">
<path d="M1320 1930 l0 -50 70 0 70 0 0 -235 0 -235 -70 0 -70 0 0 -55 0 -55
210 0 210 0 0 55 0 55 -70 0 -70 0 0 285 0 285 -140 0 -140 0 0 -50z"/>
<path d="M952 1954 c-25 -17 -31 -81 -10 -102 20 -20 92 -15 113 8 57 63 -31
145 -103 94z"/>
<path d="M220 1625 l0 -325 65 0 65 0 1 203 0 202 27 -90 c26 -86 28 -90 58
-93 17 -2 35 3 41 10 6 7 25 56 42 108 l32 95 -6 -217 -6 -218 65 0 66 0 0
325 0 325 -80 0 c-56 0 -82 -4 -85 -12 -2 -7 -16 -53 -31 -102 -29 -99 -33
-99 -58 9 -10 39 -20 78 -22 88 -5 14 -18 17 -90 17 l-84 0 0 -325z"/>
<path d="M1948 1780 c-45 -13 -89 -51 -105 -88 -14 -33 -13 -37 3 -49 33 -24
90 -16 124 17 39 38 81 40 116 5 44 -44 30 -59 -62 -66 -144 -11 -215 -73
-199 -176 16 -109 148 -163 257 -107 25 13 30 13 44 -1 27 -26 148 -16 131 12
-3 5 -10 87 -16 182 -13 208 -21 230 -91 260 -51 22 -148 27 -202 11z m162
-300 c0 -35 -5 -43 -32 -60 -50 -30 -99 -25 -119 11 -22 42 37 88 114 89 37 0
37 0 37 -40z"/>
<path d="M2536 1765 c-44 -30 -42 -30 -49 -5 -4 17 -14 20 -61 20 l-56 0 0
-240 0 -240 59 0 58 0 8 169 c4 106 11 176 19 186 29 40 122 32 142 -12 4 -10
9 -91 12 -180 l4 -163 65 0 66 0 -5 183 c-7 220 -18 259 -82 288 -60 27 -135
25 -180 -6z"/>
<path d="M800 1730 l0 -50 65 0 65 0 0 -135 0 -135 -65 0 -65 0 0 -55 0 -55
195 0 195 0 0 55 0 55 -60 0 -60 0 0 185 0 185 -135 0 -135 0 0 -50z"/>
<path d="M1002 793 c3 -38 3 -38 51 -41 l47 -3 0 -160 0 -159 -34 0 c-56 0
-66 -8 -66 -51 l0 -39 151 0 150 0 -3 37 c-3 37 -5 38 -50 47 l-48 8 0 199 0
199 -101 0 -100 0 3 -37z"/>
<path d="M427 639 c-5 -131 -10 -177 -22 -195 -25 -39 -76 -30 -101 18 -13 25
-20 29 -52 26 -32 -3 -37 -7 -40 -31 -7 -62 61 -117 146 -117 60 0 83 9 130
53 l32 31 0 193 0 193 -43 0 -44 0 -6 -171z"/>
<path d="M600 578 c0 -131 11 -181 48 -215 24 -23 33 -24 82 -18 66 7 83 7
138 -1 l42 -6 0 176 0 176 -50 0 -50 0 0 -115 c0 -103 -2 -117 -21 -136 -13
-13 -30 -19 -47 -17 -23 3 -28 9 -34 43 -4 22 -7 82 -7 133 l-1 92 -50 0 -50
0 0 -112z"/>
<path d="M1390 650 l0 -40 45 0 45 0 0 -89 0 -90 -42 -3 c-43 -3 -43 -3 -46
-45 l-3 -43 141 0 141 0 -3 43 c-3 41 -4 42 -40 45 l-38 3 0 62 c0 34 -3 92
-7 130 l-6 67 -93 0 -94 0 0 -40z"/>
<path d="M1750 515 l0 -175 44 0 43 0 7 53 c3 28 6 86 6 129 0 76 0 76 31 87
35 12 64 -1 73 -34 3 -11 6 -68 6 -127 0 -119 -2 -116 69 -102 l31 7 0 119 c0
129 -11 174 -51 202 -29 20 -101 21 -139 1 -25 -13 -29 -13 -34 0 -3 10 -19
15 -46 15 l-40 0 0 -175z"/>
<path d="M2168 650 c-22 -22 -38 -45 -36 -52 8 -23 74 -21 108 3 24 19 35 21
58 13 17 -6 27 -17 27 -29 0 -17 -11 -22 -70 -32 -85 -15 -125 -50 -125 -109
0 -73 48 -110 134 -100 28 3 62 6 76 5 14 0 41 -2 60 -2 l35 -2 -3 130 c-5
186 -26 215 -156 215 -66 0 -69 -1 -108 -40z"/>
<path d="M2588 675 c-48 -27 -73 -81 -73 -162 0 -80 15 -110 75 -150 39 -27
116 -31 160 -8 37 19 70 62 70 91 0 21 -5 24 -38 24 -28 0 -44 -6 -60 -25 -27
-31 -62 -32 -88 -4 -14 16 -19 34 -17 76 2 62 22 93 59 93 23 0 54 -23 54 -41
0 -5 20 -9 45 -9 42 0 45 2 45 26 0 17 -14 40 -39 65 -37 37 -41 39 -102 39
-36 -1 -76 -7 -91 -15z"/>
</g>
</svg>
